<?xml version="1.0" encoding="utf-8"?>
<!-- Generator: Adobe Illustrator 15.0.1, SVG Export Plug-In . SVG Version: 6.00 Build 0)  -->
<!DOCTYPE svg PUBLIC "-//W3C//DTD SVG 1.1//EN" "http://www.w3.org/Graphics/SVG/1.1/DTD/svg11.dtd">
<svg version="1.1" id="Layer_1" xmlns="http://www.w3.org/2000/svg" xmlns:xlink="http://www.w3.org/1999/xlink" x="0px" y="0px"
	 width="50px" height="50px" viewBox="0 0 50 50" enable-background="new 0 0 50 50" xml:space="preserve">
<g id="New_Symbol_271">
	<path fill="#FFFFFF" d="M43.75,15.625c-0.574,0-1.685,0-3.125,0v3.125c0,4.819-4.557,9.375-9.374,9.375H16.919L12.5,32.546
		c0,0.669,0,1.303,0,1.829c0,3.125,3.125,6.25,6.25,6.25c1.562,0,10.157,0,15.625,0L43.75,50v-9.375c3.125,0,6.25-3.125,6.25-6.25
		s0-9.375,0-12.5S46.875,15.625,43.75,15.625z"/>
	<path fill="#FFFFFF" d="M31.251,0C28.126,0,9.375,0,6.25,0C3.125,0,0,3.125,0,6.25s0,9.375,0,12.5S3.125,25,6.25,25
		c0.574,0-1.437,0,0,0v9.375L15.625,25c5.469,0,14.063,0,15.625,0c3.124,0,6.249-3.125,6.249-6.25s0-9.375,0-12.5S34.375,0,31.251,0
		z"/>
</g>
</svg>
