<?xml version="1.0" encoding="utf-8"?>
<!-- Generator: Adobe Illustrator 15.0.1, SVG Export Plug-In . SVG Version: 6.00 Build 0)  -->
<!DOCTYPE svg PUBLIC "-//W3C//DTD SVG 1.1//EN" "http://www.w3.org/Graphics/SVG/1.1/DTD/svg11.dtd">
<svg version="1.1" id="Layer_1" xmlns="http://www.w3.org/2000/svg" xmlns:xlink="http://www.w3.org/1999/xlink" x="0px" y="0px"
	 width="50px" height="50px" viewBox="0 0 50 50" enable-background="new 0 0 50 50" xml:space="preserve">
<g id="New_Symbol">
	<polygon fill="#FFFFFF" points="0,49.879 1.156,41.754 2.318,33.622 9.291,40.595 16.263,47.564 8.135,48.729 	"/>
	<polygon fill="#FFFFFF" points="39.477,19.625 18.562,40.55 16.241,38.229 37.156,17.304 32.501,12.655 11.583,33.57 9.258,31.249 
		30.18,10.331 27.855,8.007 4.616,31.249 18.562,45.194 41.798,21.949 	"/>
	<path fill="#FFFFFF" d="M49.104,15.031c1.229-1.22,1.188-3.27-0.094-4.551L39.72,1.183c-1.275-1.276-3.331-1.314-4.552-0.091
		c-0.097,0.097-0.142,0.227-0.227,0.336l-0.055-0.058l-4.464,4.461l13.945,13.945l4.461-4.464l-0.059-0.062
		C48.881,15.17,49.004,15.132,49.104,15.031z"/>
</g>
</svg>
