<?xml version="1.0" encoding="utf-8"?>
<!-- Generator: Adobe Illustrator 15.0.1, SVG Export Plug-In . SVG Version: 6.00 Build 0)  -->
<!DOCTYPE svg PUBLIC "-//W3C//DTD SVG 1.1//EN" "http://www.w3.org/Graphics/SVG/1.1/DTD/svg11.dtd">
<svg version="1.1" id="Layer_1" xmlns="http://www.w3.org/2000/svg" xmlns:xlink="http://www.w3.org/1999/xlink" x="0px" y="0px"
	 width="80px" height="80px" viewBox="0 0 80 80" enable-background="new 0 0 80 80" xml:space="preserve">
<g>
	<path fill="#FFFFFF" d="M33.426,11c12.366,0,22.426,10.06,22.426,22.425c0,12.366-10.06,22.426-22.426,22.426S11,45.791,11,33.425
		C11,21.06,21.06,11,33.426,11 M33.426,0C14.965,0,0,14.965,0,33.425c0,18.461,14.965,33.426,33.426,33.426
		c18.461,0,33.426-14.965,33.426-33.426C66.852,14.965,51.887,0,33.426,0L33.426,0z"/>
</g>
<line fill="none" stroke="#FFFFFF" stroke-width="16" stroke-linecap="round" stroke-miterlimit="10" x1="57.062" y1="57.062" x2="71.627" y2="71.627"/>
</svg>