<?xml version="1.0" encoding="utf-8"?>
<!-- Generator: Adobe Illustrator 15.0.1, SVG Export Plug-In . SVG Version: 6.00 Build 0)  -->
<!DOCTYPE svg PUBLIC "-//W3C//DTD SVG 1.1//EN" "http://www.w3.org/Graphics/SVG/1.1/DTD/svg11.dtd">
<svg version="1.1" id="Layer_1" xmlns="http://www.w3.org/2000/svg" xmlns:xlink="http://www.w3.org/1999/xlink" x="0px" y="0px"
	 width="60px" height="60px" viewBox="10 10 60 60" enable-background="new 10 10 60 60" xml:space="preserve">
<g>
	<path fill="#FFFFFF" d="M34.934,18.205c9.225,0,16.729,7.505,16.729,16.728c0,9.225-7.505,16.73-16.729,16.73
		c-9.224,0-16.729-7.506-16.729-16.73C18.205,25.71,25.71,18.205,34.934,18.205 M34.934,10C21.163,10,10,21.163,10,34.933
		c0,13.772,11.163,24.935,24.934,24.935c13.771,0,24.934-11.162,24.934-24.935C59.867,21.163,48.705,10,34.934,10L34.934,10z"/>
</g>
<line fill="none" stroke="#FFFFFF" stroke-width="11.9352" stroke-linecap="round" stroke-miterlimit="10" x1="52.565" y1="52.565" x2="63.43" y2="63.43"/>
</svg>
