<?xml version="1.0" encoding="utf-8"?>
<!-- Generator: Adobe Illustrator 15.0.1, SVG Export Plug-In . SVG Version: 6.00 Build 0)  -->
<!DOCTYPE svg PUBLIC "-//W3C//DTD SVG 1.1//EN" "http://www.w3.org/Graphics/SVG/1.1/DTD/svg11.dtd">
<svg version="1.1" id="Layer_1" xmlns="http://www.w3.org/2000/svg" xmlns:xlink="http://www.w3.org/1999/xlink" x="0px" y="0px"
	 width="50px" height="50px" viewBox="0 0 50 50" enable-background="new 0 0 50 50" xml:space="preserve">
<g id="New_Symbol_119">
	<g>
		<path fill="#FFFFFF" d="M36.48,1c0.707,0,1.461,0.045,2.265,0.117C43.646,1.594,49.31,6.074,50,14.669v2.858
			c-0.643,8.219-6.852,18.364-25,31.086C6.851,35.891,0.643,25.746,0,17.527v-2.858C0.688,6.074,6.353,1.594,11.251,1.117
			C12.056,1.045,12.81,1,13.516,1C19.174,1,21.892,3.444,25,7.147C28.105,3.444,30.819,1,36.48,1 M36.48,6.464
			c-3.249,0-4.606,0.994-7.292,4.194L25,15.649l-4.191-4.991c-2.685-3.2-4.042-4.194-7.293-4.194c-0.534,0-1.117,0.027-1.734,0.089
			c-2.262,0.221-5.779,2.627-6.314,8.35v2.385C6.133,24.476,12.699,32.732,25,41.869c12.3-9.137,18.866-17.394,19.53-24.58v-2.385
			c-0.536-5.723-4.055-8.129-6.316-8.35C37.595,6.492,37.014,6.464,36.48,6.464L36.48,6.464z"/>
	</g>
</g>
</svg>
